<?xml version="1.0" encoding="UTF-8"?>
<svg xmlns="http://www.w3.org/2000/svg" viewBox="0 0 512 512">
  <defs>
    <style>
      .cls-1 {
        fill: #1447e6;
      }

      .cls-2 {
        fill: #2b7fff;
      }

      .cls-3 {
        fill: #f0f5f9;
      }
    </style>
  </defs>
  <g id="Background">
    <circle class="cls-3" cx="256" cy="256" r="256"/>
  </g>
  <g id="P">
    <g>
      <path class="cls-2" d="M340.14,233.04c5.06,0,9.99.2,14.76.6,1.31-7.51,1.99-15.4,1.99-23.64,0-74.4-55.19-120-135.42-120h-118.28v239.99h118.28c1.04,0,2.08-.01,3.12-.03v-96.93h115.54Z"/>
      <path class="cls-2" d="M354.91,233.64c-10.39,59.42-60.59,95.29-130.31,96.33v143.07h80.91v-58.96h34.63c66.85,0,109.36-34.98,109.36-90.53,0-51.32-36.32-85.08-94.6-89.9Z"/>
    </g>
    <path class="cls-1" d="M224.6,329.97c69.72-1.04,119.92-36.91,130.31-96.33-4.78-.4-9.7-.6-14.76-.6h-115.54v96.93Z"/>
  </g>
</svg>